<?xml version="1.0" encoding="UTF-8" standalone="no"?>
<svg
   xmlns:dc="http://purl.org/dc/elements/1.1/"
   xmlns:cc="http://creativecommons.org/ns#"
   xmlns:rdf="http://www.w3.org/1999/02/22-rdf-syntax-ns#"
   xmlns:svg="http://www.w3.org/2000/svg"
   xmlns="http://www.w3.org/2000/svg"
   xml:space="preserve"
   enable-background="new 0 0 1511.22 512.282"
   viewBox="0 0 1511.22 512.282"
   height="512.282px"
   width="1511.22px"
   y="0px"
   x="0px"
   id="Layer_1"
   version="1.1"><metadata
     id="metadata11"><rdf:RDF><cc:Work
         rdf:about=""><dc:format>image/svg+xml</dc:format><dc:type
           rdf:resource="http://purl.org/dc/dcmitype/StillImage" /><dc:title></dc:title></cc:Work></rdf:RDF></metadata><defs
     id="defs9" /><path
     id="path3"
     d="M378.305,215.362c1.212,0.56,2.612,0.84,4.2,0.84c1.771,0,3.592-0.466,5.46-1.4  c1.866-0.932,3.359-2.332,4.48-4.2l15.68-24.78c0.466-0.932,0.56-1.842,0.279-2.73c-0.279-0.886-0.888-1.516-1.819-1.89  c-2.24-0.746-4.435-1.12-6.58-1.12c-2.708,0-5.39,0.678-8.05,2.03c-2.66,1.354-4.784,3.664-6.37,6.93l-8.96,22.26  c-0.374,0.748-0.374,1.518,0,2.31C376.997,214.406,377.557,214.99,378.305,215.362z M977.639,285.642  c-0.653-3.266-1.518-6.252-2.59-8.959c-1.074-2.707-2.218-5.11-3.43-7.211c-1.214-2.1-2.194-3.756-2.94-4.97  c-0.748-1.212-1.75-2.286-3.01-3.22c-1.26-0.932-2.66-1.563-4.2-1.891c-1.54-0.325-3.08-0.301-4.62,0.07  c-1.54,0.375-2.87,1.215-3.989,2.521c-1.589,1.68-2.429,3.548-2.521,5.6c-1.588,3.92-3.618,7.259-6.09,10.011  c-2.475,2.754-5.18,5.039-8.12,6.859s-5.974,3.15-9.1,3.99c-3.129,0.84-6.139,1.26-9.03,1.26c-5.134,0-9.194-1.12-12.18-3.359  c-2.988-2.24-4.48-4.992-4.48-8.261c0-1.399,0.232-2.706,0.7-3.92l1.12-2.66c2.052,1.309,4.315,2.335,6.79,3.08  c2.472,0.748,5.109,1.12,7.91,1.12c3.172,0,6.229-0.49,9.17-1.47c2.939-0.98,5.621-2.356,8.05-4.13c2.426-1.772,4.55-3.92,6.37-6.44  c1.819-2.521,3.195-5.366,4.13-8.54c0.746-2.8,1.12-5.366,1.12-7.7c0-3.36-0.63-6.462-1.891-9.31c-1.26-2.846-3.034-5.32-5.319-7.42  c-2.288-2.1-5.064-3.756-8.33-4.97c-3.269-1.212-6.86-1.82-10.78-1.82c-3.08,0-6.138,0.444-9.17,1.33  c-3.034,0.888-5.858,2.24-8.47,4.06c-2.614,1.82-4.948,4.06-7,6.72c-2.055,2.66-3.688,5.718-4.9,9.17l-8.26,23.94  c-0.405,1.214-0.728,2.428-1.01,3.642c-2.28,4.921-4.694,8.719-7.25,11.339c-3.64,3.734-7.094,5.6-10.36,5.6  c-2.613,0-3.92-1.26-3.92-3.779c0-0.746,0.232-1.912,0.7-3.5l11.06-31.221l-0.139,0.14c1.025-2.892,1.539-5.46,1.539-7.7  c0-2.8-0.56-5.366-1.68-7.7c-1.12-2.332-2.614-4.316-4.48-5.95c-1.867-1.632-4.06-2.916-6.58-3.85c-2.52-0.932-5.18-1.4-7.979-1.4  c-5.228,0-9.708,1.065-13.44,3.194c-0.468-1.295-1.518-2.314-3.149-3.058c-1.634-0.744-3.408-1.092-5.32-1.046  c-1.914,0.048-3.71,0.536-5.39,1.463c-1.68,0.928-2.801,2.363-3.36,4.305l-14.939,41.804c-0.483,0.521-0.981,1.027-1.509,1.498  c-3.034,2.708-6.65,4.06-10.85,4.06h-0.98c-0.374,0-0.7-0.046-0.98-0.14c0,0.094-0.023-0.351-0.07-1.33s-0.209-2.122-0.489-3.431  c0.932-0.651,1.866-1.68,2.8-3.079c0.561-0.841,1.26-2.263,2.1-4.271c0.84-2.006,1.633-4.151,2.381-6.439  c0.746-2.286,1.399-4.55,1.959-6.79c0.561-2.24,0.887-4.06,0.98-5.46c0.28-3.546-0.258-6.79-1.609-9.73  c-1.354-2.94-3.269-5.46-5.74-7.56c-2.475-2.1-5.414-3.71-8.82-4.83c-3.408-1.12-6.979-1.68-10.71-1.68  c-3.269,0-6.464,0.444-9.59,1.33c-3.128,0.888-6.021,2.17-8.681,3.85c-2.66,1.68-5.018,3.758-7.069,6.23  c-2.054,2.474-3.64,5.25-4.761,8.33l-11.34,31.22c-0.408,1.292-0.732,2.551-1.017,3.794c-1.58,2.748-3.222,5.021-4.933,6.775  c-3.688,3.78-7.117,5.671-10.289,5.671c-1.309,0-2.358-0.351-3.15-1.051c-0.794-0.699-1.189-1.562-1.189-2.59  c0-0.652,0.14-1.26,0.42-1.82l11.479-32.479c0.84-2.612,1.261-5.132,1.261-7.56c0-2.8-0.515-5.412-1.541-7.84  c-1.027-2.426-2.449-4.526-4.27-6.3c-1.82-1.772-3.969-3.172-6.439-4.2c-2.475-1.026-5.111-1.54-7.91-1.54  c-3.175,0-6.16,0.608-8.961,1.82l7.561-22.12c1.12-2.706,1.54-5.132,1.26-7.28c-0.279-2.146-0.958-3.896-2.029-5.25  c-1.074-1.352-2.451-2.286-4.131-2.8c-1.68-0.512-3.408-0.512-5.18,0c-1.773,0.514-3.454,1.61-5.04,3.29  c-1.588,1.68-2.849,4.014-3.78,7l-26.354,73.772c-1.699,2.85-3.665,5.356-5.915,7.497c-3.873,3.688-8.237,6.418-13.09,8.19  c0.373-0.746,0.631-1.306,0.771-1.68c0.14-0.372,0.302-0.792,0.489-1.261c1.961-5.319,3.942-10.801,5.951-16.449  c2.006-5.646,3.99-11.176,5.949-16.59c0.84-2.332,1.26-4.76,1.26-7.28c0-2.8-0.537-5.482-1.609-8.05  c-1.074-2.566-2.544-4.782-4.41-6.65c-1.868-1.866-4.038-3.36-6.51-4.48c-2.475-1.12-5.064-1.68-7.77-1.68  c-1.869,0-3.828,0.188-5.881,0.56c-2.054,0.374-3.874,1.214-5.46,2.52c0.093-1.026-0.28-1.982-1.12-2.87  c-0.84-0.886-1.914-1.61-3.22-2.17c-1.308-0.56-2.8-0.862-4.479-0.91c-1.681-0.046-3.291,0.188-4.83,0.7  c-1.541,0.514-2.94,1.4-4.2,2.66c-1.261,1.26-2.171,2.918-2.729,4.97l-16.899,47.777c-1.586,2.782-3.23,5.07-4.94,6.823  c-3.641,3.734-7.094,5.6-10.359,5.6c-2.615,0-3.92-1.26-3.92-3.779c0-0.746,0.231-1.912,0.699-3.5l11.061-31.221l-0.141,0.14  c1.026-2.892,1.54-5.46,1.54-7.7c0-2.8-0.56-5.366-1.68-7.7c-1.12-2.332-2.614-4.316-4.479-5.95c-1.869-1.632-4.061-2.916-6.58-3.85  c-2.521-0.932-5.181-1.4-7.98-1.4c-5.229,0-9.708,1.065-13.439,3.194c-0.469-1.295-1.519-2.314-3.15-3.058  c-1.635-0.744-3.408-1.092-5.32-1.046c-1.914,0.048-3.71,0.536-5.391,1.463c-1.68,0.928-2.799,2.363-3.359,4.305l-16.949,47.428  c-0.021,0.024-0.04,0.05-0.061,0.074c-2.475,2.894-5.18,5.273-8.12,7.14c-2.94,1.868-6.021,3.244-9.239,4.13  c-3.221,0.889-6.324,1.33-9.311,1.33c-5.135,0-9.194-1.12-12.18-3.359c-2.988-2.24-4.48-4.992-4.48-8.261  c0-1.399,0.232-2.706,0.7-3.92l1.12-2.66c2.052,1.309,4.316,2.335,6.789,3.08c2.473,0.748,5.111,1.12,7.91,1.12  c3.172,0,6.23-0.49,9.17-1.47c2.94-0.98,5.623-2.356,8.051-4.13c2.426-1.772,4.55-3.92,6.369-6.44  c1.82-2.521,3.197-5.366,4.131-8.54c0.746-2.8,1.119-5.366,1.119-7.7c0-3.36-0.629-6.462-1.889-9.31  c-1.261-2.846-3.035-5.32-5.32-7.42c-2.289-2.1-5.064-3.756-8.33-4.97c-3.269-1.212-6.86-1.82-10.78-1.82  c-3.08,0-6.138,0.444-9.17,1.33c-3.034,0.888-5.858,2.24-8.47,4.06c-2.614,1.82-4.948,4.06-7,6.72c-2.055,2.66-3.688,5.718-4.9,9.17  l-8.26,23.94c-0.477,1.429-0.851,2.857-1.157,4.285c-2.215,4.486-4.557,7.972-7.032,10.415c-3.779,3.733-7.304,5.601-10.57,5.601  c-1.399,0-2.474-0.373-3.219-1.121c-0.749-0.746-1.121-1.631-1.121-2.66c0-0.279,0.047-0.629,0.141-1.049  c0.092-0.42,0.231-0.862,0.42-1.33l28.279-81.621c0.933-2.52,1.19-4.712,0.771-6.58c-0.42-1.866-1.238-3.382-2.45-4.55  c-1.214-1.166-2.708-1.936-4.48-2.31c-1.773-0.372-3.547-0.302-5.319,0.21c-1.774,0.514-3.431,1.494-4.97,2.94  c-1.54,1.448-2.73,3.43-3.57,5.95l-26.049,75.622c-0.916,1.509-1.913,2.906-3.001,4.179c-2.474,2.894-5.181,5.273-8.12,7.14  c-2.939,1.868-6.02,3.244-9.24,4.13c-3.22,0.889-6.324,1.33-9.31,1.33c-5.134,0-9.194-1.12-12.18-3.359  c-2.988-2.24-4.48-4.992-4.48-8.261c0-1.399,0.232-2.706,0.7-3.92l1.12-2.66c2.052,1.309,4.316,2.335,6.79,3.08  c2.472,0.748,5.11,1.12,7.91,1.12c3.172,0,6.23-0.49,9.17-1.47c2.94-0.98,5.622-2.356,8.05-4.13c2.426-1.772,4.55-3.92,6.37-6.44  s3.195-5.366,4.13-8.54c0.745-2.8,1.12-5.366,1.12-7.7c0-3.36-0.631-6.462-1.891-9.31c-1.26-2.846-3.033-5.32-5.32-7.42  c-2.287-2.1-5.063-3.756-8.329-4.97c-3.269-1.212-6.86-1.82-10.78-1.82c-3.08,0-6.138,0.444-9.17,1.33  c-3.034,0.888-5.858,2.24-8.47,4.06c-2.614,1.82-4.948,4.06-7,6.72c-2.054,2.66-3.688,5.718-4.9,9.17l-8.26,23.94  c-0.394,1.182-0.709,2.363-0.988,3.545c-2.086,4.353-4.298,7.779-6.642,10.245c-3.594,3.78-7.024,5.67-10.29,5.67  c-1.4,0-2.52-0.42-3.36-1.26s-1.26-1.96-1.26-3.36c0-0.651,0.092-1.352,0.28-2.1c0.186-0.746,0.42-1.54,0.7-2.38l21.42-59.78v0.14  c1.212-3.36,1.82-6.766,1.82-10.22c0-3.266-0.584-6.3-1.75-9.1c-1.168-2.8-2.8-5.226-4.9-7.28c-2.1-2.052-4.62-3.662-7.56-4.83  c-2.94-1.166-6.184-1.75-9.73-1.75c-4.2,0-8.61,0.84-13.23,2.52s-8.564,4.248-11.83,7.7c-2.054-3.08-4.27-5.482-6.65-7.21  c-2.38-1.726-5.67-2.73-9.87-3.01c-2.428-0.186-4.668,0-6.72,0.56c-2.054,0.56-3.804,1.238-5.25,2.03  c-1.448,0.794-2.614,1.564-3.5,2.31c-0.888,0.749-1.378,1.214-1.47,1.4c-0.56-1.586-1.798-3.01-3.71-4.27  c-1.914-1.26-4.038-2.03-6.37-2.31c-2.334-0.28-4.62,0.118-6.86,1.19c-2.24,1.074-3.92,3.15-5.04,6.23  c-3.64,10.36-6.744,19.18-9.31,26.46c-2.568,7.28-4.69,13.37-6.37,18.27c-1.68,4.9-3.034,8.798-4.06,11.69  c-1.028,2.894-1.82,5.134-2.38,6.72c-0.56,1.588-0.958,2.708-1.19,3.359c-0.234,0.654-0.444,1.215-0.63,1.681  c-3.174,7.748-5.6,12.46-7.28,14.14c-3.172,3.268-6.742,5.6-10.71,7c-3.966,1.4-7.886,2.1-11.76,2.1c-3.872,0-7.512-0.56-10.92-1.68  c-3.406-1.119-6.136-2.566-8.19-4.34c-2.986-2.52-5.226-5.67-6.72-9.45c-1.492-3.78-2.332-7.77-2.52-11.97  c-0.186-4.2,0.21-8.4,1.19-12.6c0.98-4.2,2.45-7.956,4.41-11.27c1.96-3.312,4.34-5.996,7.14-8.05c2.8-2.052,5.928-3.08,9.38-3.08  c1.12,0.094,2.194,0.468,3.22,1.12c1.028,0.654,1.704,1.588,2.03,2.8c0.328,1.214,0.164,2.73-0.49,4.55  c-0.652,1.82-2.146,3.944-4.48,6.37c-1.026,1.028-1.796,2.218-2.31,3.57c-0.512,1.354-0.77,2.73-0.77,4.13s0.258,2.754,0.77,4.06  c0.514,1.308,1.284,2.52,2.31,3.64c2.148,2.148,4.738,3.22,7.77,3.22c3.034,0,5.624-1.072,7.77-3.22  c2.614-2.706,4.784-5.576,6.51-8.61c1.728-3.032,3.01-6.066,3.85-9.1c0.84-3.032,1.238-5.972,1.19-8.82  c-0.046-2.846-0.442-5.436-1.19-7.77c-1.96-4.666-4.48-8.376-7.56-11.13c-3.08-2.752-6.51-4.62-10.29-5.6  c-3.78-0.98-7.722-1.142-11.83-0.49c-4.106,0.654-8.142,1.96-12.11,3.92c-3.966,1.96-7.7,4.574-11.2,7.84  c-3.5,3.268-6.51,7-9.03,11.2c-2.426,4.108-4.432,9.24-6.02,15.4c-1.586,6.16-2.24,12.578-1.96,19.25  c0.28,6.674,1.68,13.254,4.2,19.74c2.52,6.488,6.674,12.109,12.46,16.869c4.108,3.549,9.148,6.347,15.12,8.4  c5.974,2.052,12.25,3.057,18.83,3.01c6.58-0.048,13.138-1.308,19.67-3.779c6.532-2.473,12.46-6.463,17.78-11.971  c1.4-1.399,2.682-2.985,3.85-4.76c1.166-1.771,2.262-3.615,3.29-5.529c1.026-1.912,1.96-3.851,2.8-5.811  c0.84-1.96,1.632-3.78,2.38-5.46c0.56-1.492,1.166-3.149,1.82-4.97c0.652-1.82,1.54-4.34,2.66-7.561  c1.12-3.22,2.612-7.466,4.48-12.74c1.866-5.272,4.34-12.156,7.42-20.65c2.052-4.2,4.62-7.63,7.7-10.29  c3.08-2.66,6.206-3.99,9.38-3.99c1.12,0,2.122,0.28,3.01,0.84c0.886,0.56,1.54,1.494,1.96,2.8c0.42,1.308,0.512,3.01,0.28,5.11  c-0.234,2.1-0.958,4.69-2.17,7.77l-23.38,65.52c-1.028,2.708-1.33,5.063-0.91,7.07c0.42,2.008,1.26,3.616,2.52,4.829  c1.26,1.213,2.846,2.031,4.76,2.451c1.912,0.42,3.85,0.396,5.81-0.07c1.96-0.469,3.78-1.424,5.46-2.87  c1.68-1.446,2.94-3.382,3.78-5.81l25.06-71.541c1.771-5.04,4.222-8.96,7.35-11.76c3.126-2.8,6.276-4.2,9.45-4.2  c1.96,0,3.546,0.63,4.76,1.89c1.212,1.26,1.82,2.918,1.82,4.97c0,0.748-0.094,1.518-0.28,2.31c-0.188,0.794-0.42,1.61-0.7,2.45  l-18.48,52.36c-1.308,3.733-1.96,7.328-1.96,10.78c0,3.453,0.652,6.533,1.96,9.24c1.306,2.707,3.08,4.994,5.32,6.859  c2.24,1.866,4.852,3.29,7.84,4.27c2.986,0.98,6.16,1.471,9.52,1.471c3.826,0,7.582-0.678,11.27-2.03  c3.686-1.354,7.186-3.521,10.5-6.51c0.874-0.788,1.733-1.642,2.578-2.554c1.228,1.358,2.605,2.608,4.142,3.744  c3.22,2.379,7.022,4.199,11.41,5.459c4.386,1.261,9.146,1.891,14.28,1.891c4.852,0,9.8-0.654,14.84-1.96  c5.04-1.308,9.846-3.406,14.42-6.3c0.561-0.354,1.113-0.723,1.661-1.103c1.006,1.471,2.19,2.782,3.589,3.902  c2.1,1.68,4.551,2.962,7.35,3.85c2.801,0.886,5.74,1.33,8.82,1.33c3.36,0,6.86-0.584,10.5-1.75  c3.641-1.168,7.211-3.172,10.711-6.021c1.187-0.965,2.356-2.052,3.511-3.242c1.272,1.437,2.715,2.751,4.327,3.943  c3.221,2.379,7.022,4.199,11.41,5.459c4.387,1.261,9.146,1.891,14.28,1.891c4.853,0,9.8-0.654,14.84-1.96  c2.35-0.609,4.646-1.398,6.894-2.352c0.555,1.117,1.311,2.021,2.276,2.701c1.261,0.886,2.778,1.4,4.55,1.54  c1.771,0.141,3.521-0.118,5.25-0.77c1.727-0.654,3.336-1.68,4.83-3.08c1.492-1.4,2.612-3.221,3.36-5.46  c1.212-3.36,2.521-6.976,3.92-10.851c1.399-3.871,2.8-7.791,4.2-11.76c1.4-3.966,2.775-7.886,4.13-11.76  c1.352-3.872,2.636-7.49,3.851-10.85c1.865-3.546,3.941-6.16,6.229-7.84c2.286-1.68,4.409-2.52,6.37-2.52  c1.306,0,2.355,0.398,3.15,1.19c0.791,0.794,1.189,1.844,1.189,3.15c0,0.468-0.07,1.004-0.208,1.61  c-0.14,0.608-0.3,1.238-0.483,1.89l-9.828,27.86c-1.201,3.08-1.801,6.16-1.801,9.24c0,3.268,0.602,6.138,1.807,8.609  c1.205,2.475,2.851,4.55,4.938,6.23c2.085,1.68,4.471,2.961,7.16,3.85c2.686,0.886,5.519,1.33,8.496,1.33  c2.359,0,4.739-0.295,7.141-0.867l-6.068,17.155c-3.134,0.004-6.313,0.011-9.547,0.022c-13.766,0.045-155.233,0.256-169.327,0.629  c-14.187,0.372-28.231,1.026-42.14,1.961c-13.906,0.932-27.066,2.332-39.48,4.199c-12.227,1.771-23.566,4.082-34.02,6.93  c-10.452,2.847-19.181,6.511-26.181,10.99c-2.052,1.307-3.336,3.127-3.85,5.461c-0.512,2.331-0.116,4.525,1.19,6.58  c1.308,2.051,3.128,3.336,5.46,3.85c2.334,0.512,4.528,0.115,6.58-1.19c5.228-3.36,12.368-6.323,21.419-8.89  c9.055-2.568,19.648-4.738,31.78-6.51c11.948-1.774,24.71-3.104,38.29-3.99c13.58-0.889,27.418-1.564,41.51-2.03  c14-0.374,155.352-0.584,168.978-0.63c13.628-0.049,26.39-0.023,38.29,0.07c11.9,0.092,22.588,0.231,32.06,0.42  c9.474,0.186,17.059,0.279,22.75,0.279l206.5,0.42c19.88,0,37.006-0.537,51.38-1.609c14.372-1.074,26.32-3.221,35.841-6.439  c9.52-3.221,16.775-7.818,21.77-13.791c4.992-5.974,8.002-13.859,9.03-23.66C978.479,292.271,978.292,288.91,977.639,285.642z   M911.7,247.282c0.84-2.146,2.029-3.802,3.569-4.97c1.54-1.166,3.103-1.75,4.69-1.75c1.96,0,3.521,0.7,4.69,2.1  c1.165,1.4,1.75,3.08,1.75,5.04c0,1.214-0.188,2.334-0.561,3.36c-0.56,1.868-1.518,3.29-2.87,4.27c-1.354,0.98-2.87,1.61-4.55,1.89  c-1.68,0.28-3.384,0.28-5.11,0c-1.728-0.279-3.244-0.792-4.55-1.54L911.7,247.282z M478.543,247.282  c0.841-2.146,2.031-3.802,3.57-4.97c1.541-1.166,3.102-1.75,4.69-1.75c1.96,0,3.522,0.7,4.69,2.1c1.166,1.4,1.75,3.08,1.75,5.04  c0,1.214-0.188,2.334-0.561,3.36c-0.561,1.868-1.518,3.29-2.87,4.27c-1.354,0.98-2.87,1.61-4.55,1.89c-1.68,0.28-3.385,0.28-5.109,0  c-1.729-0.279-3.244-0.792-4.551-1.54L478.543,247.282z M373.125,247.282c0.84-2.146,2.03-3.802,3.57-4.97  c1.54-1.166,3.102-1.75,4.69-1.75c1.96,0,3.522,0.7,4.69,2.1c1.166,1.4,1.75,3.08,1.75,5.04c0,1.214-0.188,2.334-0.56,3.36  c-0.56,1.868-1.518,3.29-2.87,4.27c-1.354,0.98-2.87,1.61-4.55,1.89c-1.68,0.28-3.384,0.28-5.11,0  c-1.728-0.279-3.244-0.792-4.55-1.54L373.125,247.282z M752.591,280.252c0.326-1.446,0.63-2.59,0.91-3.43  c1.026-3.172,2.472-7.256,4.34-12.25c1.866-4.992,4.34-11.13,7.42-18.41c0.746-2.332,2.03-4.13,3.851-5.39  c1.819-1.26,3.801-1.89,5.949-1.89c2.146,0,3.872,0.63,5.18,1.89c1.307,1.26,1.961,2.684,1.961,4.27c0,1.308-0.328,2.964-0.98,4.97  c-0.654,2.008-1.214,3.758-1.68,5.25c-0.188,0.654-0.374,1.26-0.561,1.82c-0.188,0.56-0.328,1.12-0.42,1.681  c-1.96-0.187-3.804,0.023-5.529,0.629c-1.729,0.609-3.269,1.541-4.621,2.801c-1.354,1.26-2.428,2.8-3.219,4.619  c-0.795,1.82-1.19,3.759-1.19,5.811c0.092,2.428,0.651,4.34,1.68,5.74c1.026,1.4,2.192,2.66,3.5,3.779  c-0.094,0.095-0.14,0.188-0.14,0.281c-0.934,2.428-2.334,4.317-4.2,5.67c-1.868,1.354-3.828,2.029-5.88,2.029  c-2.334,0-3.969-0.535-4.9-1.609c-0.934-1.072-1.494-2.356-1.68-3.851C752.194,283.171,752.263,281.7,752.591,280.252z   M607.204,278.362l9.66-27.58l-0.281,0.14c1.213-2.426,2.801-4.292,4.761-5.6c1.96-1.306,3.92-1.912,5.88-1.82  c2.146,0.188,3.641,1.19,4.48,3.01s0.791,4.084-0.141,6.79c-0.84,2.8-1.634,5.274-2.38,7.419c-0.748,2.148-1.47,4.248-2.17,6.301  c-0.7,2.054-1.448,4.154-2.24,6.3c-0.794,2.147-1.658,4.574-2.59,7.28c-0.748,2.148-1.983,3.804-3.71,4.97  c-1.729,1.168-3.523,1.798-5.391,1.89c-2.239,0-4.014-0.77-5.319-2.31C606.456,283.612,606.269,281.351,607.204,278.362z   M958.11,303.562c-2.101,4.293-5.484,7.771-10.15,10.431c-4.668,2.66-10.384,4.666-17.15,6.021  c-6.768,1.352-14.118,2.332-22.05,2.939c-7.934,0.605-16.24,0.91-24.92,0.91h-25.62l-204.54-0.42c-5.6,0-13.136-0.094-22.61-0.28  c-9.471-0.188-20.182-0.328-32.129-0.42c-2.359-0.019-4.766-0.034-7.196-0.047c0.557-1.598,1.113-3.211,1.669-4.853  c0.98-2.895,1.937-5.719,2.871-8.471c0.932-2.754,1.819-5.298,2.659-7.63c1.866,1.399,3.921,2.521,6.16,3.36  c2.24,0.84,4.761,1.26,7.56,1.26c1.772,0.186,3.57,0.326,5.391,0.42c1.82,0.092,3.57,0.141,5.25,0.141  c6.812,0,13.16-0.749,19.04-2.24c3.899-0.991,7.558-2.338,10.985-4.026c1.291,2.439,3.039,4.068,5.254,4.866  c2.332,0.84,4.806,0.676,7.42-0.49c2.611-1.168,4.619-3.616,6.02-7.35l16.801-47.181c1.491-2.706,3.336-4.946,5.529-6.72  c2.191-1.772,4.362-2.66,6.51-2.66c1.4,0,2.543,0.444,3.431,1.33c0.886,0.888,1.329,1.984,1.329,3.29c0,0.934-0.188,1.774-0.56,2.52  l-10.079,28.7v-0.14c-1.121,3.36-1.681,6.44-1.681,9.239c0,3.269,0.651,6.16,1.96,8.681c1.307,2.521,3.031,4.62,5.18,6.3  c2.146,1.68,4.596,2.94,7.351,3.78c2.751,0.84,5.622,1.26,8.61,1.26c3.359,0,6.789-0.584,10.289-1.75  c3.5-1.168,6.93-3.172,10.291-6.021c0.182-0.153,0.36-0.321,0.541-0.48c0.86,0.979,1.785,1.898,2.817,2.721  c2.521,2.006,5.412,3.547,8.681,4.621c3.266,1.071,6.672,1.609,10.219,1.609c5.506,0,10.592-1.12,15.261-3.359  c4.666-2.24,8.491-5.881,11.479-10.921c2.706,0.749,5.506,1.12,8.4,1.12c1.593,0,3.15-0.108,4.673-0.319l-0.614,1.72  c-0.652,2.334-0.7,4.318-0.141,5.949c0.561,1.633,1.471,2.893,2.73,3.78c1.26,0.886,2.778,1.4,4.551,1.54  c1.771,0.141,3.521-0.118,5.25-0.77c1.725-0.654,3.336-1.68,4.83-3.08c1.491-1.4,2.611-3.221,3.359-5.46  c1.212-3.36,2.52-6.976,3.92-10.851c1.4-3.871,2.8-7.791,4.2-11.76c1.399-3.966,2.776-7.886,4.13-11.76  c1.352-3.872,2.636-7.49,3.85-10.85c1.866-3.546,3.942-6.16,6.23-7.84c2.285-1.68,4.41-2.52,6.369-2.52  c1.307,0,2.356,0.398,3.15,1.19c0.792,0.794,1.19,1.844,1.19,3.15c0,0.468-0.07,1.004-0.208,1.61c-0.141,0.608-0.3,1.238-0.483,1.89  l-9.829,27.86c-1.2,3.08-1.8,6.16-1.8,9.24c0,3.268,0.602,6.138,1.808,8.609c1.205,2.475,2.85,4.55,4.937,6.23  c2.085,1.68,4.472,2.961,7.159,3.85c2.688,0.886,5.52,1.33,8.497,1.33c3.546,0,7.14-0.65,10.78-1.942  c3.639-1.298,7.162-3.401,10.57-6.317c1.11-0.95,2.199-2.009,3.27-3.154c1.299,1.483,2.772,2.84,4.429,4.064  c3.221,2.379,7.022,4.199,11.41,5.459c4.387,1.261,9.146,1.891,14.28,1.891c3.64,0,7.35-0.35,11.13-1.051  c3.78-0.699,7.466-1.844,11.061-3.43c3.592-1.586,7.046-3.615,10.359-6.09c3.313-2.472,6.37-5.481,9.17-9.029l0.141-0.28l0.42,1.12  C960.559,293.95,960.209,299.271,958.11,303.562z"
     fill="#C94E34" /><path
     id="path5"
     d="M1373.777,274.593c0-16.478-11.49-30.313-26.876-33.939v-5.382c0-15.709-10.874-28.92-25.489-32.517v-5.88  c0-69.837-56.817-126.654-126.655-126.654c-69.839,0-126.656,56.817-126.656,126.654v5.88  c-14.614,3.597-25.488,16.808-25.488,32.516v78.645c0,18.465,15.023,33.488,33.489,33.488s33.488-15.023,33.488-33.488v-78.645  c0-15.709-10.874-28.92-25.489-32.517v-5.88c0-11.254,1.693-22.119,4.831-32.359l21.502,11.627c2.066,1.117,4.521,1.271,6.71,0.417  c2.189-0.853,3.893-2.625,4.659-4.846c10.722-31.095,40.039-51.987,72.953-51.987s62.231,20.892,72.953,51.987  c0.767,2.221,2.47,3.993,4.659,4.846c0.937,0.365,1.922,0.546,2.904,0.546c1.313,0,2.623-0.324,3.806-0.963l21.503-11.628  c3.138,10.24,4.831,21.105,4.831,32.359v5.88c-14.614,3.597-25.488,16.808-25.488,32.516v78.645  c0,18.465,15.023,33.488,33.489,33.488c17.598,0,32.058-13.646,33.379-30.91c-0.355,13.904-3.749,33.73-17.624,50.848  c-18.834,23.235-51.85,35.555-98.177,36.681c-3.313-12.962-15.089-22.573-29.068-22.573h-14.333c-16.542,0-30,13.458-30,30v1.333  c0,16.542,13.458,30,30,30h14.333c14.045,0,25.862-9.704,29.111-22.758c51.416-1.198,88.599-15.509,110.563-42.606  c23.608-29.125,22.061-63.871,20.46-76.775C1369.24,294.25,1373.777,284.943,1373.777,274.593z M1093.589,235.271v78.645  c0,9.643-7.845,17.488-17.488,17.488s-17.489-7.846-17.489-17.488v-78.645c0-9.644,7.846-17.489,17.489-17.489  S1093.589,225.628,1093.589,235.271z M1279.343,157.81c-15.093-32.695-48.001-54.083-84.588-54.083s-69.495,21.388-84.588,54.083  l-15.393-8.324c17.785-37.371,55.914-63.266,99.981-63.266s82.195,25.895,99.979,63.265L1279.343,157.81z M1330.901,313.916  c0,9.643-7.846,17.488-17.488,17.488c-9.644,0-17.489-7.846-17.489-17.488v-78.645c0-9.644,7.846-17.489,17.489-17.489  c9.643,0,17.488,7.846,17.488,17.489V313.916z M1215.922,412.782c0,7.72-6.28,14-14,14h-14.333c-7.72,0-14-6.28-14-14v-1.333  c0-7.72,6.28-14,14-14h14.333c7.72,0,14,6.28,14,14V412.782z M1346.901,291.666v-34.145c6.414,3.018,10.876,9.525,10.876,17.071  S1353.315,288.646,1346.901,291.666z M1182.653,356.882c1.472,4.586,6.413,7.124,11.032,5.653c0.149-0.047,0.303-0.098,0.457-0.15  l-0.012-0.021c4.324-1.632,6.664-6.365,5.237-10.804c-2.1-6.556-3.606-15.208-4.37-24.827c7.445-0.074,14.89-1.437,21.986-4.107  c6.582-2.487,12.857-6.104,18.527-10.873c9.624-8.101,16.715-18.824,20.503-31.021c3.753-12.068,3.948-24.481,0.565-35.901  c-0.759-2.839-6.189-21.099-21.729-26.518c-9.298-3.249-18.563-2.39-26.771,2.476c-8.335,4.934-15.123,13.762-20.16,26.227  c-8.288,20.511-10.536,43.216-10.97,58.646c0,0.104-0.006,0.205-0.006,0.297c-6.726-2.692-12.904-7-17.906-12.869  c-7.986-9.365-11.814-21.258-10.799-33.479c1.021-12.221,6.766-23.326,16.184-31.252c3.27-2.744,6.886-5.017,10.736-6.766  c-3.023,3.532-2.739,8.833,0.707,12.023c3.543,3.282,9.1,3.097,12.401-0.431c8.546-9.101,15.78-18.676,10.908-26.959  c-1.272-2.162-4.433-5.788-11.29-5.754c-1.865,0.011-3.484,0.292-4.272,0.461c-11.238,1.886-21.791,6.769-30.531,14.125  c-12.995,10.941-20.931,26.255-22.327,43.126c-1.403,16.871,3.879,33.271,14.889,46.188c8.592,10.063,19.681,16.806,31.604,20.08  C1177.999,336.857,1179.853,348.152,1182.653,356.882z M1194.497,306.174c0.559-19.807,4.004-38.504,9.714-52.634  c8.026-19.854,17.93-21.159,24.827-18.751c6.029,2.103,9.766,11.484,10.593,14.57l0.085,0.315  c5.015,16.799-1.373,36.86-15.539,48.789c-8.642,7.273-19.213,10.837-29.737,10.861h-0.006  C1194.444,308.273,1194.467,307.223,1194.497,306.174z"
     fill="#00B6CD" /></svg>