<?xml version="1.0" encoding="UTF-8" standalone="no"?>
<svg width="332px" height="373px" viewBox="0 0 332 373" version="1.1" xmlns="http://www.w3.org/2000/svg" xmlns:xlink="http://www.w3.org/1999/xlink">
    <!-- Generator: Sketch 42 (36781) - http://www.bohemiancoding.com/sketch -->
    <title>logo</title>
    <desc>Created with Sketch.</desc>
    <defs></defs>
    <g id="Page-1" stroke="none" stroke-width="1" fill="none" fill-rule="evenodd">
        <g id="logo" fill-rule="nonzero" fill="#fff" stroke="#fff" stroke-location="outside" stroke-width="5" >
            <path d="M331.777,204.593 C331.777,188.115 320.287,174.28 304.901,170.654 L304.901,165.272 C304.901,149.563 294.027,136.352 279.412,132.755 L279.412,126.875 C279.412,57.038 222.595,0.221 152.757,0.221 C82.918,0.221 26.101,57.038 26.101,126.875 L26.101,132.755 C11.487,136.352 0.613,149.563 0.613,165.271 L0.613,243.916 C0.613,262.381 15.636,277.404 34.102,277.404 C52.568,277.404 67.59,262.381 67.59,243.916 L67.59,165.271 C67.59,149.562 56.716,136.351 42.101,132.754 L42.101,126.874 C42.101,115.62 43.794,104.755 46.932,94.515 L68.434,106.142 C70.5,107.259 72.955,107.413 75.144,106.559 C77.333,105.706 79.037,103.934 79.803,101.713 C90.525,70.618 119.842,49.726 152.756,49.726 C185.67,49.726 214.987,70.618 225.709,101.713 C226.476,103.934 228.179,105.706 230.368,106.559 C231.305,106.924 232.29,107.105 233.272,107.105 C234.585,107.105 235.895,106.781 237.078,106.142 L258.581,94.514 C261.719,104.754 263.412,115.619 263.412,126.873 L263.412,132.753 C248.798,136.35 237.924,149.561 237.924,165.269 L237.924,243.914 C237.924,262.379 252.947,277.402 271.413,277.402 C289.011,277.402 303.471,263.756 304.792,246.492 C304.437,260.396 301.043,280.222 287.168,297.34 C268.334,320.575 235.318,332.895 188.991,334.021 C185.678,321.059 173.902,311.448 159.923,311.448 L145.59,311.448 C129.048,311.448 115.59,324.906 115.59,341.448 L115.59,342.781 C115.59,359.323 129.048,372.781 145.59,372.781 L159.923,372.781 C173.968,372.781 185.785,363.077 189.034,350.023 C240.45,348.825 277.633,334.514 299.597,307.417 C323.205,278.292 321.658,243.546 320.057,230.642 C327.24,224.25 331.777,214.943 331.777,204.593 Z M51.589,165.271 L51.589,243.916 C51.589,253.559 43.744,261.404 34.101,261.404 C24.458,261.404 16.612,253.558 16.612,243.916 L16.612,165.271 C16.612,155.627 24.458,147.782 34.101,147.782 C43.744,147.782 51.589,155.628 51.589,165.271 Z M237.343,87.81 C222.25,55.115 189.342,33.727 152.755,33.727 C116.168,33.727 83.26,55.115 68.167,87.81 L52.774,79.486 C70.559,42.115 108.688,16.22 152.755,16.22 C196.822,16.22 234.95,42.115 252.734,79.485 L237.343,87.81 Z M288.901,243.916 C288.901,253.559 281.055,261.404 271.413,261.404 C261.769,261.404 253.924,253.558 253.924,243.916 L253.924,165.271 C253.924,155.627 261.77,147.782 271.413,147.782 C281.056,147.782 288.901,155.628 288.901,165.271 L288.901,243.916 Z M173.922,342.782 C173.922,350.502 167.642,356.782 159.922,356.782 L145.589,356.782 C137.869,356.782 131.589,350.502 131.589,342.782 L131.589,341.449 C131.589,333.729 137.869,327.449 145.589,327.449 L159.922,327.449 C167.642,327.449 173.922,333.729 173.922,341.449 L173.922,342.782 Z M304.901,221.666 L304.901,187.521 C311.315,190.539 315.777,197.046 315.777,204.592 C315.777,212.138 311.315,218.646 304.901,221.666 Z M140.653,286.882 C142.125,291.468 147.066,294.006 151.685,292.535 C151.834,292.488 151.988,292.437 152.142,292.385 L152.13,292.364 C156.454,290.732 158.794,285.999 157.367,281.56 C155.267,275.004 153.761,266.352 152.997,256.733 C160.442,256.659 167.887,255.296 174.983,252.626 C181.565,250.139 187.84,246.522 193.51,241.753 C203.134,233.652 210.225,222.929 214.013,210.732 C217.766,198.664 217.961,186.251 214.578,174.831 C213.819,171.992 208.389,153.732 192.849,148.313 C183.551,145.064 174.286,145.923 166.078,150.789 C157.743,155.723 150.955,164.551 145.918,177.016 C137.63,197.527 135.382,220.232 134.948,235.662 C134.948,235.766 134.942,235.867 134.942,235.959 C128.216,233.267 122.038,228.959 117.036,223.09 C109.05,213.725 105.222,201.832 106.237,189.611 C107.258,177.39 113.003,166.285 122.421,158.359 C125.691,155.615 129.307,153.342 133.157,151.593 C130.134,155.125 130.418,160.426 133.864,163.616 C137.407,166.898 142.964,166.713 146.265,163.185 C154.811,154.084 162.045,144.509 157.173,136.226 C155.901,134.064 152.74,130.438 145.883,130.472 C144.018,130.483 142.399,130.764 141.611,130.933 C130.373,132.819 119.82,137.702 111.08,145.058 C98.085,155.999 90.149,171.313 88.753,188.184 C87.35,205.055 92.632,221.455 103.642,234.372 C112.234,244.435 123.323,251.178 135.246,254.452 C135.999,266.857 137.853,278.152 140.653,286.882 Z M152.497,236.174 C153.056,216.367 156.501,197.67 162.211,183.54 C170.237,163.686 180.141,162.381 187.038,164.789 C193.067,166.892 196.804,176.273 197.631,179.359 L197.716,179.674 C202.731,196.473 196.343,216.534 182.177,228.463 C173.535,235.736 162.964,239.3 152.44,239.324 L152.434,239.324 C152.444,238.273 152.467,237.223 152.497,236.174 Z" id="path5"></path>
        </g>
    </g>
</svg>
